<svg xmlns="http://www.w3.org/2000/svg" style="display: none;">
    <symbol id="svg-symbol-rocket" viewBox="0 0 512 512">
      <path d="M204.192 62.194c14.147-20.472 29.34-41.613 50.963-54.72 21.323 12.782 36.366 33.547 50.31 53.656 32.848 49.754 52.93 109.515 48.88 169.578 10.614 8.898 21.536 17.44 31.993 26.52 15.01 13.798 22.02 35.32 18.406 55.328-5.036 25.275-9.876 50.607-15.206 75.813-2.963 12.967-20.508 18.904-30.823 10.62-17.12-14.292-33.816-29.11-50.932-43.418-12.95 12.462-30.153 20.772-48.214 21.773-20.792 1.466-41.376-7.156-56.45-21.242-12.28 9.4-23.665 20.686-35.663 30.755-5.8 4.66-10.62 10.784-17.484 13.966-10.64 4.565-24.342-2.248-26.747-13.685-5.48-24.643-11.203-49.24-16.52-73.92-4.32-20.88 3.332-43.61 19.42-57.608 9.312-7.822 18.755-15.487 28.242-23.096 2.643-1.39 1.315-4.596 1.465-6.95-2.828-57.952 16.967-115.233 48.36-163.372zm16.803 76.332c-12.424 15.994-10.92 40.768 3.488 55.052 15.255 16.81 44.15 17.422 60.106 1.29 12.316-11.253 16.48-30.146 10.602-45.67-5.387-14.968-19.81-26.196-35.67-27.592-14.65-1.686-29.816 5.053-38.527 16.92zM198.263 407.82c-.213-7.267 8.83-12.263 14.942-8.418 25.87 13.32 58.027 13.314 83.896-.007 5.938-3.645 14.737.733 14.956 7.803.087 15.432.105 30.88.024 46.317.12 7.533-9.832 12.337-15.68 7.626-4.453-3.925-8.468-8.34-12.75-12.46-6.777 13.2-13.164 26.602-19.996 39.772-3.28 6.275-13.533 6.318-16.877.105-6.87-13.195-13.213-26.676-20.12-39.858-4.222 4.156-8.25 8.547-12.695 12.467-5.824 4.734-15.756-.162-15.675-7.647-.124-15.23-.043-30.465-.024-45.7z"/><circle cx="254.831" cy="164.509" r="20.812"/>
    </symbol></svg>